<mxfile host="app.diagrams.net" modified="2024-05-15T19:11:31.186Z" agent="Mozilla/5.0 (Windows NT 10.0; Win64; x64; rv:125.0) Gecko/20100101 Firefox/125.0" version="24.4.0" etag="H0sr9JQx7wIsq0ECTQ3o" type="github">
  <diagram name="Page-1" id="JIyZBihRIfkB0QtYxaRd">
    <mxGraphModel>
      <root>
        <mxCell id="0" />
        <mxCell id="1" parent="0" />
      </root>
    </mxGraphModel>
  </diagram>
</mxfile>
